<svg width="428px" height="280px" viewBox="0 0 428 280" version="1.1" xmlns="http://www.w3.org/2000/svg" xmlns:xlink="http://www.w3.org/1999/xlink">
    <defs>
        <polygon id="path-1" points="0.2567 0.3832 16.7106792 0.3832 16.7106792 25 0.2567 25"></polygon>
        <polygon id="path-3" points="0 280 427.824 280 427.824 0.2 0 0.2"></polygon>
    </defs>
    <g id="layout-nmp-logo-blanco" stroke="none" stroke-width="1" fill="none" fill-rule="evenodd">
        <g id="Group-258">
            <path d="M87.4448,81.9492 L90.8448,80.6892 L90.8448,105.7122 C93.5598,105.0252 96.2498,104.3452 98.9088,103.6722 L98.9088,72.4032 L87.4448,76.8602 L87.4448,81.9492 Z" id="Fill-3" fill="#FEFEFE"></path>
            <polygon id="Fill-5" fill="#FEFEFE" points="93.792 59.7549 90.972 66.6679 87.445 68.1559 87.445 72.3039 98.909 67.6779 98.909 63.3179 96.866 64.1649"></polygon>
            <polygon id="Fill-7" fill="#FEFEFE" points="87.4448 148.3496 90.8448 148.0746 90.8448 168.7666 98.9088 168.8876 98.9088 142.3586 87.4448 143.5086"></polygon>
            <polygon id="Fill-9" fill="#FEFEFE" points="52.6148 176.3603 55.2978 176.4663 55.2978 199.6253 63.5808 201.0583 63.5808 172.2063 52.6148 171.9033"></polygon>
            <path d="M52.6148,94.8935 L55.2978,93.9055 L55.2978,114.7465 C58.0738,114.0525 60.8308,113.3515 63.5808,112.6455 L63.5808,86.1585 L52.6148,90.4375 L52.6148,94.8935 Z" id="Fill-11" fill="#FEFEFE"></path>
            <polygon id="Fill-13" fill="#FEFEFE" points="58.3882 74.8008 55.6202 81.5528 52.6152 82.8308 52.6152 86.3718 63.5802 81.9368 63.5802 78.1998 61.3992 79.1218"></polygon>
            <polygon id="Fill-15" fill="#FEFEFE" points="52.6148 123.6855 55.2978 123.0795 55.2978 142.7965 63.5808 141.8615 63.5808 116.7175 52.6148 119.3835"></polygon>
            <polygon id="Fill-17" fill="#FEFEFE" points="52.6148 151.3252 55.2978 151.1102 55.2978 168.2212 63.5808 168.3372 63.5808 145.9052 52.6148 146.9972"></polygon>
            <polygon id="Fill-19" fill="#FEFEFE" points="71.0259 177.1601 73.0789 177.2411 73.0789 202.7071 81.2479 204.1351 81.2479 172.6841 71.0259 172.4021"></polygon>
            <path d="M71.0259,88.0683 L73.0789,87.3213 L73.0789,110.2283 C75.8119,109.5293 78.5549,108.8413 81.2479,108.1553 L81.2479,79.2763 L71.0259,83.2613 L71.0259,88.0683 Z" id="Fill-21" fill="#FEFEFE"></path>
            <polygon id="Fill-23" fill="#FEFEFE" points="76.085 67.2871 73.288 74.1131 71.026 75.0621 71.026 78.9341 81.248 74.8071 81.248 70.7541 79.141 71.6571"></polygon>
            <polygon id="Fill-25" fill="#FEFEFE" points="71.0259 149.7636 73.0789 149.5876 73.0789 168.4966 81.2479 168.6046 81.2479 144.1346 71.0259 145.1596"></polygon>
            <polygon id="Fill-27" fill="#FEFEFE" points="71.0259 119.5322 73.0789 119.0682 73.0789 140.7972 81.2479 139.8682 81.2479 112.4702 71.0259 114.9272"></polygon>
            <polygon id="Fill-29" fill="#FEFEFE" points="5.2642 97.3652 2.5952 103.9142 0.0002 104.9982 0.0002 107.6032 10.6162 103.3432 10.6162 100.5352 8.2102 101.5392"></polygon>
            <polygon id="Fill-31" fill="#FEFEFE" points="0 174.0302 1.879 174.0992 1.879 190.3292 10.617 191.8442 10.617 170.7532 0 170.4762"></polygon>
            <polygon id="Fill-33" fill="#FEFEFE" points="0 155.7871 1.879 155.6401 1.879 167.4001 10.617 167.5281 10.617 151.2101 0 152.2681"></polygon>
            <path d="M0,114.456 L1.879,113.763 L1.879,128.438 C4.786,127.691 7.696,126.951 10.617,126.189 L10.617,106.823 L0,110.964 L0,114.456 Z" id="Fill-35" fill="#FEFEFE"></path>
            <polygon id="Fill-37" fill="#FEFEFE" points="0 135.6269 1.879 135.2089 1.879 148.8409 10.617 147.8649 10.617 129.5279 0 132.0859"></polygon>
            <path d="M17.7588,107.8457 L19.6808,107.1527 L19.6808,123.8597 C22.5478,123.1267 25.4098,122.3917 28.2578,121.6717 L28.2578,99.9437 L17.7588,104.0297 L17.7588,107.8457 Z" id="Fill-39" fill="#FEFEFE"></path>
            <polygon id="Fill-41" fill="#FEFEFE" points="17.7588 174.8115 19.6808 174.8855 19.6808 193.4175 28.2578 194.9195 28.2578 171.2375 17.7588 170.9475"></polygon>
            <polygon id="Fill-43" fill="#FEFEFE" points="22.9688 89.832 20.2698 96.449 17.7588 97.513 17.7588 100.448 28.2578 96.207 28.2578 93.09 25.9378 94.066"></polygon>
            <polygon id="Fill-45" fill="#FEFEFE" points="17.7588 154.2802 19.6808 154.0922 19.6808 167.6832 28.2578 167.7902 28.2578 149.4332 17.7588 150.4762"></polygon>
            <polygon id="Fill-47" fill="#FEFEFE" points="17.7588 131.5879 19.6808 131.1559 19.6808 146.8349 28.2578 145.8649 28.2578 125.2739 17.7588 127.7909"></polygon>
            <path d="M34.8731,101.5176 L37.4311,100.5486 L37.4311,119.3096 C40.2701,118.5886 43.1161,117.8696 45.9141,117.1566 L45.9141,93.0496 L34.8731,97.3786 L34.8731,101.5176 Z" id="Fill-49" fill="#FEFEFE"></path>
            <polygon id="Fill-51" fill="#FEFEFE" points="34.8731 127.7236 37.4311 127.1456 37.4311 144.8276 45.9141 143.8666 45.9141 121.0056 34.8731 123.6786"></polygon>
            <polygon id="Fill-53" fill="#FEFEFE" points="40.6802 82.3125 37.9422 89.0105 34.8732 90.3105 34.8732 93.5345 45.9132 89.0725 45.9132 85.6445 43.6752 86.6005"></polygon>
            <polygon id="Fill-55" fill="#FEFEFE" points="34.8731 175.5732 37.4311 175.6732 37.4311 196.5082 45.9141 197.9812 45.9141 171.7222 34.8731 171.4192"></polygon>
            <polygon id="Fill-57" fill="#FEFEFE" points="34.8731 152.8261 37.4311 152.6171 37.4311 167.9381 45.9141 168.0661 45.9141 147.6771 34.8731 148.7741"></polygon>
            <polygon id="Fill-59" fill="#FEFEFE" points="159.6875 99.4238 162.3235 98.8188 162.3235 130.7058 169.5405 129.8918 169.5405 91.1458 159.6875 93.5008"></polygon>
            <polygon id="Fill-61" fill="#FEFEFE" points="164.5889 29.6777 161.6609 36.8677 159.6879 37.7007 159.6879 43.1207 169.5399 39.1357 169.5399 33.5347 167.8069 34.2827"></polygon>
            <polygon id="Fill-63" fill="#FEFEFE" points="159.6875 142.2304 162.3235 142.0154 162.3235 169.8564 169.5405 169.9854 169.5405 135.3114 159.6875 136.2864"></polygon>
            <path d="M159.6875,55.1035 L162.3235,54.1205 L162.3235,87.6385 C164.8475,87.0045 167.2445,86.4055 169.5405,85.8335 L169.5405,44.8455 L159.6875,48.6815 L159.6875,55.1035 Z" id="Fill-65" fill="#FEFEFE"></path>
            <polygon id="Fill-67" fill="#FEFEFE" points="159.6875 181.0654 162.3235 181.1854 162.3235 218.2444 169.5405 219.5224 169.5405 175.0814 159.6875 174.8184"></polygon>
            <polygon id="Fill-69" fill="#FEFEFE" points="141.6167 143.7715 144.4247 143.5295 144.4247 169.5815 151.8997 169.7025 151.8997 137.0745 141.6167 138.0965"></polygon>
            <polygon id="Fill-71" fill="#FEFEFE" points="141.6167 103.5097 144.4247 102.8777 144.4247 132.7257 151.8997 131.8847 151.8997 95.3857 141.6167 97.8767"></polygon>
            <path d="M141.6167,61.8222 L144.4247,60.7842 L144.4247,92.1482 C146.9997,91.5082 149.4807,90.8832 151.8997,90.2632 L151.8997,51.7312 L141.6167,55.7232 L141.6167,61.8222 Z" id="Fill-73" fill="#FEFEFE"></path>
            <polygon id="Fill-75" fill="#FEFEFE" points="146.898 37.1982 143.977 44.3132 141.617 45.3222 141.617 50.4322 151.9 46.2712 151.9 40.9732 150.055 41.7542"></polygon>
            <polygon id="Fill-77" fill="#FEFEFE" points="141.6167 180.2646 144.4247 180.3926 144.4247 215.1276 151.8997 216.4126 151.8997 174.6226 141.6167 174.3206"></polygon>
            <polygon id="Fill-79" fill="#FEFEFE" points="177.7495 95.332 180.2065 94.779 180.2065 128.674 187.2095 127.873 187.2095 86.856 177.7495 89.145"></polygon>
            <polygon id="Fill-81" fill="#FEFEFE" points="182.2993 22.166 179.3443 29.417 177.7493 30.089 177.7493 35.831 187.2103 32.002 187.2103 26.098 185.5413 26.804"></polygon>
            <polygon id="Fill-83" fill="#FEFEFE" points="177.7495 181.8593 180.2065 181.9603 180.2065 221.3603 187.2095 222.5783 187.2095 175.5733 177.7495 175.3093"></polygon>
            <path d="M177.7495,48.3652 L180.2065,47.4492 L180.2065,83.1552 C182.7675,82.5022 185.1095,81.9152 187.2095,81.3972 L187.2095,37.9582 L177.7495,41.6402 L177.7495,48.3652 Z" id="Fill-85" fill="#FEFEFE"></path>
            <polygon id="Fill-87" fill="#FEFEFE" points="177.7495 140.7021 180.2065 140.5011 180.2065 170.1331 187.2095 170.2481 187.2095 133.5401 177.7495 134.4691"></polygon>
            <polygon id="Fill-89" fill="#FEFEFE" points="123.5625 107.6035 126.5475 106.9225 126.5475 134.7455 134.2395 133.8765 134.2395 99.6545 123.5625 102.2455"></polygon>
            <path d="M123.5625,68.5322 L126.5475,67.4092 L126.5475,96.6642 C129.1535,96.0172 131.7185,95.3652 134.2395,94.7262 L134.2395,58.6172 L123.5625,62.7772 L123.5625,68.5322 Z" id="Fill-91" fill="#FEFEFE"></path>
            <polygon id="Fill-93" fill="#FEFEFE" points="123.5625 145.2998 126.5475 145.0508 126.5475 169.3118 134.2395 169.4328 134.2395 138.8238 123.5625 139.9078"></polygon>
            <polygon id="Fill-95" fill="#FEFEFE" points="129.1875 44.709 126.3195 51.765 123.5625 52.922 123.5625 57.708 134.2395 53.393 134.2395 48.433 132.3405 49.234"></polygon>
            <polygon id="Fill-97" fill="#FEFEFE" points="123.5625 179.4697 126.5475 179.6117 126.5475 212.0247 134.2395 213.3697 134.2395 174.1307 123.5625 173.8417"></polygon>
            <polygon id="Fill-99" fill="#FEFEFE" points="105.502 146.8349 108.662 146.5729 108.662 169.0489 116.568 169.1569 116.568 140.6029 105.502 141.7049"></polygon>
            <polygon id="Fill-101" fill="#FEFEFE" points="111.4834 52.2431 108.6534 59.2101 105.5024 60.5351 105.5024 65.0131 116.5684 60.5351 116.5684 55.8711 114.6034 56.7051"></polygon>
            <polygon id="Fill-103" fill="#FEFEFE" points="105.502 111.7031 108.662 110.9901 108.662 136.7781 116.568 135.8691 116.568 103.9291 105.502 106.6001"></polygon>
            <path d="M105.502,75.2383 L108.662,74.0603 L108.662,101.1873 C111.325,100.5223 113.973,99.8483 116.568,99.2033 L116.568,65.5033 L105.502,69.8183 L105.502,75.2383 Z" id="Fill-105" fill="#FEFEFE"></path>
            <polygon id="Fill-107" fill="#FEFEFE" points="105.502 178.6885 108.662 178.8175 108.662 208.8955 116.568 210.3015 116.568 173.6405 105.502 173.3435"></polygon>
            <polygon id="Fill-109" fill="#FEFEFE" points="385.105 156.7304 385.105 153.0534 374.414 151.8424 374.414 171.1354 382.398 171.1644 382.398 156.4734"></polygon>
            <polygon id="Fill-111" fill="#FEFEFE" points="385.105 178.6357 385.105 174.5557 374.414 174.6357 374.414 199.5167 382.398 198.3597 382.398 178.7157"></polygon>
            <polygon id="Fill-113" fill="#FEFEFE" points="385.105 108.251 385.105 104.164 374.414 100.084 374.414 123.026 382.398 125.064 382.398 107.28"></polygon>
            <polygon id="Fill-115" fill="#FEFEFE" points="385.105 97.3652 382.91 96.4492 380.25 89.9662 377.308 94.1542 374.414 92.9622 374.414 96.1792 385.105 100.3862"></polygon>
            <polygon id="Fill-117" fill="#FEFEFE" points="385.105 132.9814 385.105 129.1444 374.414 126.5404 374.414 148.1484 382.398 149.1434 382.398 132.3704"></polygon>
            <polygon id="Fill-119" fill="#FEFEFE" points="331.6675 120.7705 331.6675 116.1385 320.2295 113.3515 320.2295 207.2985 328.0245 206.1805 328.0245 119.9435"></polygon>
            <polygon id="Fill-121" fill="#FEFEFE" points="331.6675 75.3789 329.1775 74.3559 326.4315 67.5969 323.3885 71.9739 320.2295 70.6529 320.2295 74.8149 331.6675 79.3239"></polygon>
            <polygon id="Fill-123" fill="#FEFEFE" points="328.0249 87.3486 331.6679 88.7006 331.6679 83.7666 320.2299 79.4056 320.2299 109.1926 331.6679 112.1076 331.6679 107.0036 328.0249 106.0296"></polygon>
            <polygon id="Fill-125" fill="#FEFEFE" points="239.7144 99.708 239.7144 93.763 229.9254 91.38 229.9254 130.296 237.0814 131.171 237.0814 99.096"></polygon>
            <polygon id="Fill-127" fill="#FEFEFE" points="239.7144 142.7558 239.7144 136.8318 229.9254 135.7488 229.9254 170.5708 237.0814 170.5838 237.0814 142.5068"></polygon>
            <polygon id="Fill-129" fill="#FEFEFE" points="239.7144 37.5468 238.3554 36.9958 235.4524 29.8528 232.2354 34.4648 229.9254 33.5098 229.9254 39.1958 239.7144 43.0748"></polygon>
            <polygon id="Fill-131" fill="#FEFEFE" points="239.7144 55.124 239.7144 48.675 229.9254 44.939 229.9254 86.158 237.0814 87.995 237.0814 54.168"></polygon>
            <polygon id="Fill-133" fill="#FEFEFE" points="239.7144 181.8935 239.7144 175.6135 229.9254 175.6615 229.9254 220.2975 237.0814 219.2675 237.0814 181.9545"></polygon>
            <polygon id="Fill-135" fill="#FEFEFE" points="367.6402 128.9961 367.6402 124.8851 356.3472 122.1431 356.3472 145.9201 364.2882 146.9161 364.2882 128.2081"></polygon>
            <polygon id="Fill-137" fill="#FEFEFE" points="367.6402 101.8818 367.6402 97.4928 356.3472 93.1768 356.3472 118.4128 364.2882 120.4408 364.2882 100.6758"></polygon>
            <polygon id="Fill-139" fill="#FEFEFE" points="367.6402 155.0547 367.6402 151.0897 356.3472 149.8447 356.3472 171.0627 364.2882 171.0887 364.2882 154.7177"></polygon>
            <polygon id="Fill-141" fill="#FEFEFE" points="367.6402 179.0322 367.6402 174.6782 356.3472 174.7642 356.3472 202.1072 364.2882 200.9572 364.2882 179.1052"></polygon>
            <polygon id="Fill-143" fill="#FEFEFE" points="367.6402 90.1738 365.1632 89.1658 362.4992 82.6298 359.5562 86.8568 356.3472 85.5298 356.3472 89.0718 367.6402 93.5278"></polygon>
            <polygon id="Fill-145" fill="#FEFEFE" points="403.1851 104.8037 400.8691 103.8477 398.2441 97.4467 395.3491 101.5777 392.4821 100.3867 392.4821 103.3007 403.1851 107.5367"></polygon>
            <polygon id="Fill-147" fill="#FEFEFE" points="403.1851 114.8535 403.1851 111.0565 392.4821 106.9775 392.4821 127.6365 400.5051 129.6755 400.5051 113.8495"></polygon>
            <polygon id="Fill-149" fill="#FEFEFE" points="403.1851 158.4736 403.1851 155.0606 392.4821 153.8696 392.4821 171.1906 400.5051 171.2376 400.5051 158.2246"></polygon>
            <polygon id="Fill-151" fill="#FEFEFE" points="403.1851 137.1279 403.1851 133.5469 392.4821 130.9359 392.4821 150.3899 400.5051 151.3789 400.5051 136.5179"></polygon>
            <polygon id="Fill-153" fill="#FEFEFE" points="403.1851 178.2461 403.1851 174.4151 392.4821 174.4971 392.4821 196.9121 400.5051 195.7401 400.5051 178.3121"></polygon>
            <polygon id="Fill-155" fill="#FEFEFE" points="420.8023 141.1533 420.8023 137.8363 410.5343 135.3253 410.5343 152.6243 418.5303 153.6203 418.5303 140.6413"></polygon>
            <polygon id="Fill-157" fill="#FEFEFE" points="420.8023 121.3144 420.8023 117.7824 410.5343 113.8784 410.5343 132.2274 418.5303 134.2884 418.5303 120.4814"></polygon>
            <polygon id="Fill-159" fill="#FEFEFE" points="420.8023 112.0674 418.3183 111.0234 415.7323 104.6884 412.8723 108.7744 410.5343 107.8344 410.5343 110.4374 420.8023 114.4834"></polygon>
            <polygon id="Fill-161" fill="#FEFEFE" points="420.8023 160.1699 420.8023 157.0329 410.5343 155.8819 410.5343 171.2709 418.5303 171.3059 418.5303 159.9359"></polygon>
            <polygon id="Fill-163" fill="#FEFEFE" points="420.8023 177.8535 420.8023 174.2925 410.5343 174.3805 410.5343 194.2995 418.5303 193.1685 418.5303 177.9015"></polygon>
            <polygon id="Fill-165" fill="#FEFEFE" points="344.7398 75.2041 341.7378 79.5121 338.2908 78.0991 338.2908 81.9361 350.0518 86.5811 350.0518 82.9451 347.4608 81.8831"></polygon>
            <polygon id="Fill-167" fill="#FEFEFE" points="338.2906 122.2646 342.8686 123.3076 342.8686 204.0396 350.0526 203.0096 350.0526 120.6156 338.2906 117.7406"></polygon>
            <polygon id="Fill-169" fill="#FEFEFE" points="338.2906 91.1572 342.8686 92.8342 342.8686 110.0072 338.2906 108.7672 338.2906 113.8022 350.0526 116.8122 350.0526 90.7952 338.2906 86.2852"></polygon>
            <polygon id="Fill-171" fill="#FEFEFE" points="199.3067 0.2002 197.4397 15.2182 195.3117 18.6652 195.3117 28.7362 199.2867 27.1142 199.3067 27.1142 203.2987 28.6882 203.2987 18.6652 201.1747 15.2252"></polygon>
            <polygon id="Fill-173" fill="#FEFEFE" points="195.3223 84.8847 195.3223 126.9637 199.3063 126.5197 203.2723 127.0097 203.2723 84.8847 199.3063 83.9277"></polygon>
            <path d="M199.2871,33.2461 L195.3221,34.7941 L195.3221,79.3571 C197.7621,78.7381 199.1421,78.3951 199.3071,78.3611 L199.3071,78.3281 L199.3171,78.3611 L199.3311,78.3611 L203.2721,79.3571 L203.2721,35.9181 L203.2991,35.9181 L203.2991,34.7731 L199.3071,33.2461 L199.2871,33.2461 Z" id="Fill-175" fill="#FEFEFE"></path>
            <polygon id="Fill-177" fill="#FEFEFE" points="199.3067 170.4297 203.2717 170.4427 203.2717 132.7667 199.2867 132.3267 195.3227 132.7257 195.3227 170.3677"></polygon>
            <polyline id="Fill-179" fill="#FEFEFE" points="199.2871 175.8886 195.3221 175.7876 195.3221 223.9796 199.3701 224.6936 203.2721 224.1346 203.2721 175.8746 199.3071 175.8886"></polyline>
            <polygon id="Fill-181" fill="#FEFEFE" points="258.105 61.8554 258.105 55.7024 247.968 51.8254 247.968 90.7744 255.291 92.6384 255.291 60.8264"></polygon>
            <polygon id="Fill-183" fill="#FEFEFE" points="258.105 144.5273 258.105 138.8713 247.968 137.7673 247.968 170.6193 255.291 170.6583 255.291 144.2443"></polygon>
            <polygon id="Fill-185" fill="#FEFEFE" points="258.105 45.1211 256.38 44.3931 253.486 37.3401 250.304 41.9041 247.968 40.9481 247.968 46.3261 258.105 50.3181"></polygon>
            <polygon id="Fill-187" fill="#FEFEFE" points="258.105 103.9023 258.105 98.2403 247.968 95.7763 247.968 132.5393 255.291 133.4323 255.291 103.2613"></polygon>
            <polygon id="Fill-189" fill="#FEFEFE" points="258.105 181.4883 258.105 175.4643 247.968 175.5463 247.968 217.6983 255.291 216.6493 255.291 181.5563"></polygon>
            <polygon id="Fill-191" fill="#FEFEFE" points="221.3218 29.9746 219.8958 29.3956 216.9648 22.2046 213.7238 26.8576 211.8518 26.0766 211.8518 32.0756 221.3218 35.8036"></polygon>
            <polygon id="Fill-193" fill="#FEFEFE" points="221.3218 182.331 221.3218 175.747 211.8518 175.808 211.8518 222.895 218.8728 221.886 218.8728 182.391"></polygon>
            <polygon id="Fill-195" fill="#FEFEFE" points="221.3218 48.3926 221.3218 41.6546 211.8518 38.0386 211.8518 81.5526 218.8728 83.3366 218.8728 47.5166"></polygon>
            <polygon id="Fill-197" fill="#FEFEFE" points="221.3218 95.4736 221.3218 89.2806 211.8518 86.9846 211.8518 128.0756 218.8728 128.9356 218.8728 94.9206"></polygon>
            <polygon id="Fill-199" fill="#FEFEFE" points="221.3218 140.999 221.3218 134.786 211.8518 133.729 211.8518 170.49 218.8728 170.517 218.8728 140.769"></polygon>
            <polygon id="Fill-201" fill="#FEFEFE" points="294.8863 148.0605 294.8863 142.9775 284.1013 141.7795 284.1013 170.7735 291.7163 170.7995 291.7163 147.7515"></polygon>
            <polygon id="Fill-203" fill="#FEFEFE" points="294.8863 75.2715 294.8863 69.7245 284.1013 65.6045 284.1013 99.9705 291.7163 101.9285 291.7163 74.1135"></polygon>
            <polygon id="Fill-205" fill="#FEFEFE" points="294.8863 180.6758 294.8863 175.2158 284.1013 175.2898 284.1013 212.4878 291.7163 211.4048 291.7163 180.7638"></polygon>
            <polygon id="Fill-207" fill="#FEFEFE" points="294.8863 112.3291 294.8863 107.1791 284.1013 104.5741 284.1013 136.9861 291.7163 137.9301 291.7163 111.5751"></polygon>
            <polygon id="Fill-209" fill="#FEFEFE" points="294.8863 60.2334 292.6793 59.3434 289.8703 52.4174 286.7553 56.9014 284.1013 55.8114 284.1013 60.5764 294.8863 64.8184"></polygon>
            <polygon id="Fill-211" fill="#FEFEFE" points="313.2827 116.5498 313.2827 111.6558 302.1557 108.9498 302.1557 139.2228 309.8847 140.1788 309.8847 115.7758"></polygon>
            <polygon id="Fill-213" fill="#FEFEFE" points="313.2827 81.9961 313.2827 76.7331 302.1557 72.4991 302.1557 104.5871 309.8847 106.5481 309.8847 80.7771"></polygon>
            <polygon id="Fill-215" fill="#FEFEFE" points="313.2827 149.8242 313.2827 145.0242 302.1557 143.7922 302.1557 170.8402 309.8847 170.8802 309.8847 149.4942"></polygon>
            <polygon id="Fill-217" fill="#FEFEFE" points="313.2827 180.2568 313.2827 175.0748 302.1557 175.1488 302.1557 209.9098 309.8847 208.7928 309.8847 180.3378"></polygon>
            <polygon id="Fill-219" fill="#FEFEFE" points="313.2827 67.8125 311.2437 66.9795 308.4307 60.0905 305.3197 64.5345 302.1557 63.2225 302.1557 67.6995 313.2827 72.0735"></polygon>
            <polygon id="Fill-221" fill="#FEFEFE" points="276.5015 52.6797 274.5585 51.8787 271.7285 44.9517 268.6065 49.4277 266.0485 48.3777 266.0485 53.4477 276.5015 57.5607"></polygon>
            <polygon id="Fill-223" fill="#FEFEFE" points="276.5015 181.0859 276.5015 175.3379 266.0485 175.4109 266.0485 215.1009 273.4935 214.0219 273.4935 181.1529"></polygon>
            <polygon id="Fill-225" fill="#FEFEFE" points="276.5015 68.5801 276.5015 62.6961 266.0485 58.7261 266.0485 95.3651 273.4935 97.2631 273.4935 67.4821"></polygon>
            <polygon id="Fill-227" fill="#FEFEFE" points="276.5015 108.1084 276.5015 102.7104 266.0485 100.1654 266.0485 134.7654 273.4935 135.6744 273.4935 107.4214"></polygon>
            <polygon id="Fill-229" fill="#FEFEFE" points="276.5015 146.2959 276.5015 140.9319 266.0485 139.7669 266.0485 170.7119 273.4935 170.7259 273.4935 146.0139"></polygon>
            <polygon id="Fill-231" fill="#FEFEFE" points="24.8643 245.6758 24.8643 279.5358 18.9573 279.5358 5.5883 250.1718 5.4933 250.1718 5.4933 279.5358 1.6433 279.5358 1.6433 245.6758 7.7483 245.6758 20.9123 274.6548 21.0093 274.6548 21.0093 245.6758"></polygon>
            <path d="M32.5113,272.501 C32.5113,274.803 33.6293,276.863 36.2133,276.863 C38.5633,276.863 41.4603,275.409 41.0903,267.762 C37.4303,267.803 32.5113,267.486 32.5113,272.501 Z M41.1883,276.117 L41.0903,276.117 C39.9193,278.835 38.0823,280 35.1293,280 C30.1143,280 28.6673,276.762 28.6673,272.231 C28.6673,265.043 35.6953,264.713 41.0903,264.847 C41.1883,261.703 41.2293,258.291 37.1013,258.291 C34.5243,258.291 33.1633,260.021 33.3993,262.518 L29.2233,262.518 C29.4053,257.22 32.2213,255.383 37.2403,255.383 C43.3493,255.383 44.9283,258.525 44.9283,262.518 L44.9283,273.907 C44.9283,275.793 45.1223,277.712 45.4083,279.536 L41.1883,279.536 L41.1883,276.117 Z" id="Fill-233" fill="#FEFEFE"></path>
            <g id="Group-237" transform="translate(49.000000, 255.000000)">
                <mask id="mask-2" fill="white">
                    <use xlink:href="#path-1"></use>
                </mask>
                <g id="Clip-236"></g>
                <path d="M12.5347,8.4472 C12.6287,4.5552 10.7107,3.5252 9.2467,3.5252 C6.2977,3.5252 4.2777,4.9332 4.2777,11.4092 C4.2777,19.0952 5.2607,21.8632 9.2467,21.8632 C10.1397,21.8632 12.8167,20.9262 12.6687,16.6602 L16.7077,16.6602 C16.8497,23.3242 11.8807,25.0002 9.2467,25.0002 C4.2407,25.0002 0.2567,23.5062 0.2567,13.0382 C0.2567,6.1042 1.0467,0.3832 9.2467,0.3832 C13.9887,0.3832 16.7557,3.1552 16.5267,8.4472 L12.5347,8.4472 Z" id="Fill-235" fill="#FEFEFE" mask="url(#mask-2)"></path>
            </g>
            <mask id="mask-4" fill="white">
                <use xlink:href="#path-3"></use>
            </mask>
            <g id="Clip-239"></g>
            <path d="M69.224,279.536 L73.079,279.536 L73.079,255.847 L69.224,255.847 L69.224,279.536 Z M68.993,249.802 L73.305,249.802 L73.305,245.676 L68.993,245.676 L68.993,249.802 Z" id="Fill-238" fill="#FEFEFE" mask="url(#mask-4)"></path>
            <path d="M89.7637,266.4092 C89.7637,259.9332 87.7477,258.5252 84.7957,258.5252 C81.8407,258.5252 79.8337,259.9332 79.8337,266.4092 C79.8337,274.0952 80.8137,276.8632 84.7957,276.8632 C88.7777,276.8632 89.7637,274.0952 89.7637,266.4092 M75.7917,268.0382 C75.7917,261.1042 76.5867,255.3832 84.7957,255.3832 C93.0057,255.3832 93.8027,261.1042 93.8027,268.0382 C93.8027,278.5062 89.8207,280.0002 84.7957,280.0002 C79.7807,280.0002 75.7917,278.5062 75.7917,268.0382" id="Fill-240" fill="#FEFEFE" mask="url(#mask-4)"></path>
            <path d="M109.4629,279.5361 L109.4629,263.1161 C109.4629,260.5941 108.5779,258.5251 105.2939,258.5251 C101.0659,258.5251 100.4569,262.2831 100.4569,265.5131 L100.4569,279.5361 L96.6239,279.5361 L96.6239,260.7811 C96.6239,259.1391 96.5179,257.4831 96.3849,255.8471 L100.4569,255.8471 L100.4569,258.8961 L100.6459,258.8961 C102.1469,256.2301 103.9339,255.3831 106.9829,255.3831 C112.0449,255.3831 113.3109,258.4251 113.3109,263.1161 L113.3109,279.5361 L109.4629,279.5361 Z" id="Fill-241" fill="#FEFEFE" mask="url(#mask-4)"></path>
            <path d="M120.3008,272.501 C120.3008,274.803 121.4288,276.863 124.0008,276.863 C126.3578,276.863 129.2578,275.409 128.8908,267.762 C125.2328,267.803 120.3008,267.486 120.3008,272.501 Z M128.9788,276.117 L128.8908,276.117 C127.7108,278.835 125.8818,280 122.9278,280 C117.9028,280 116.4548,276.762 116.4548,272.231 C116.4548,265.043 123.4898,264.713 128.8908,264.847 C128.9788,261.703 129.0218,258.291 124.8918,258.291 C122.3138,258.291 120.9608,260.021 121.1868,262.518 L117.0108,262.518 C117.2088,257.22 120.0118,255.383 125.0368,255.383 C131.1368,255.383 132.7328,258.525 132.7328,262.518 L132.7328,273.907 C132.7328,275.793 132.9188,277.712 133.2038,279.536 L128.9788,279.536 L128.9788,276.117 Z" id="Fill-242" fill="#FEFEFE" mask="url(#mask-4)"></path>
            <polygon id="Fill-243" fill="#FEFEFE" mask="url(#mask-4)" points="136.858 279.536 140.698 279.536 140.698 245.676 136.858 245.676"></polygon>
            <polygon id="Fill-244" fill="#FEFEFE" mask="url(#mask-4)" points="155.71 279.5361 151.674 279.5361 151.674 245.6761 158.661 245.6761 167.204 274.0961 167.298 274.0961 175.918 245.6761 183.051 245.6761 183.051 279.5361 178.742 279.5361 178.742 249.4261 178.645 249.4261 169.166 279.5361 165.089 279.5361 155.801 249.4261 155.71 249.4261"></polygon>
            <path d="M200.3106,266.4092 C200.3106,259.9332 198.2946,258.5252 195.3416,258.5252 C192.3766,258.5252 190.3636,259.9332 190.3636,266.4092 C190.3636,274.0952 191.3466,276.8632 195.3416,276.8632 C199.3206,276.8632 200.3106,274.0952 200.3106,266.4092 M186.3456,268.0382 C186.3456,261.1042 187.1296,255.3832 195.3416,255.3832 C203.5456,255.3832 204.3426,261.1042 204.3426,268.0382 C204.3426,278.5062 200.3506,280.0002 195.3416,280.0002 C190.3246,280.0002 186.3456,278.5062 186.3456,268.0382" id="Fill-245" fill="#FEFEFE" mask="url(#mask-4)"></path>
            <path d="M220.0171,279.5361 L220.0171,263.1161 C220.0171,260.5941 219.1151,258.5251 215.8331,258.5251 C211.6191,258.5251 211.0001,262.2831 211.0001,265.5131 L211.0001,279.5361 L207.1591,279.5361 L207.1591,260.7811 C207.1591,259.1391 207.0621,257.4831 206.9271,255.8471 L211.0001,255.8471 L211.0001,258.8961 L211.1881,258.8961 C212.6891,256.2301 214.4701,255.3831 217.5191,255.3831 C222.5871,255.3831 223.8551,258.4251 223.8551,263.1161 L223.8551,279.5361 L220.0171,279.5361 Z" id="Fill-246" fill="#FEFEFE" mask="url(#mask-4)"></path>
            <path d="M227.7437,255.8467 L227.7437,251.3037 L231.5957,249.5607 L231.5957,255.8467 L236.7517,255.8467 L236.7517,258.7477 L231.5957,258.7477 L231.5957,273.2547 C231.5957,274.7487 231.5957,276.6807 235.1087,276.6807 C235.3917,276.6807 235.9977,276.5787 236.8457,276.4867 L236.8457,279.4417 C235.5797,279.5357 234.3157,279.8187 233.0507,279.8187 C229.3887,279.8187 227.7437,278.3237 227.7437,275.5907 L227.7437,258.7477 L223.8547,258.7477 L223.8547,255.8467 L227.7437,255.8467 Z" id="Fill-247" fill="#FEFEFE" mask="url(#mask-4)"></path>
            <path d="M250.0738,266.0254 C250.0738,259.1384 248.1558,258.2914 245.3418,258.2914 C242.9038,258.2914 240.8708,259.4564 240.8318,266.0254 L250.0738,266.0254 Z M240.8318,268.9324 C240.8318,275.5434 242.6088,276.8634 245.6248,276.8634 C248.2498,276.8634 249.6088,274.7494 249.7438,272.3524 L253.9668,272.3524 C253.9238,277.6104 250.6738,280.0004 245.7048,280.0004 C240.6888,280.0004 236.7048,278.5054 236.7048,268.0384 C236.7048,261.1044 237.5058,255.3824 245.7048,255.3824 C252.4648,255.3824 254.1458,259.0844 254.1458,266.9204 L254.1458,268.9324 L240.8318,268.9324 Z" id="Fill-248" fill="#FEFEFE" mask="url(#mask-4)"></path>
            <path d="M272.437,258.5254 C268.324,258.5254 267.751,261.8054 267.751,268.1324 C267.751,271.6994 267.751,276.8634 272.578,276.8634 C276.9,276.8634 276.9,271.5104 276.9,266.7384 C276.9,263.5874 276.699,258.5254 272.437,258.5254 Z M276.9,245.6754 L280.736,245.6754 L280.736,279.5364 L276.9,279.5364 L276.9,276.7144 L276.804,276.7144 C275.494,278.9164 273.849,280.0004 271.367,280.0004 C267.57,280.0004 263.726,278.5054 263.726,268.0904 C263.726,262.1744 263.908,255.3824 271.556,255.3824 C273.802,255.3824 275.445,256.3644 276.757,258.2434 L276.9,258.2434 L276.9,245.6754 Z" id="Fill-249" fill="#FEFEFE" mask="url(#mask-4)"></path>
            <path d="M297.5269,266.0254 C297.5269,259.1384 295.6149,258.2914 292.7979,258.2914 C290.3629,258.2914 288.3429,259.4564 288.2889,266.0254 L297.5269,266.0254 Z M288.2889,268.9324 C288.2889,275.5434 290.0779,276.8634 293.0759,276.8634 C295.7089,276.8634 297.0539,274.7494 297.2089,272.3524 L301.4289,272.3524 C301.3769,277.6104 298.1439,280.0004 293.1769,280.0004 C288.1479,280.0004 284.1699,278.5054 284.1699,268.0384 C284.1699,261.1044 284.9779,255.3824 293.1769,255.3824 C299.9219,255.3824 301.6189,259.0844 301.6189,266.9204 L301.6189,268.9324 L288.2889,268.9324 Z" id="Fill-250" fill="#FEFEFE" mask="url(#mask-4)"></path>
            <path d="M317.1421,260.8701 L321.8741,260.8701 C323.6501,260.8701 327.8781,260.3911 327.8781,255.1001 C327.8781,249.9351 324.0351,249.4261 323.1071,249.4261 L317.1421,249.4261 L317.1421,260.8701 Z M312.8181,279.5361 L312.8181,245.6761 L322.8571,245.6761 C327.4061,245.6761 332.2861,247.3651 332.2861,255.3351 C332.2861,263.0301 326.2901,264.6191 322.8101,264.6191 L317.1421,264.6191 L317.1421,279.5361 L312.8181,279.5361 Z" id="Fill-251" fill="#FEFEFE" mask="url(#mask-4)"></path>
            <path d="M334.523,279.536 L338.373,279.536 L338.373,255.847 L334.523,255.847 L334.523,279.536 Z M334.3,249.802 L338.614,249.802 L338.614,245.676 L334.3,245.676 L334.3,249.802 Z" id="Fill-252" fill="#FEFEFE" mask="url(#mask-4)"></path>
            <path d="M354.7437,266.0254 C354.7437,259.1384 352.8257,258.2914 350.0187,258.2914 C347.5677,258.2914 345.5537,259.4564 345.5147,266.0254 L354.7437,266.0254 Z M345.5147,268.9324 C345.5147,275.5434 347.2927,276.8634 350.2927,276.8634 C352.9197,276.8634 354.2787,274.7494 354.4217,272.3524 L358.6397,272.3524 C358.6007,277.6104 355.3627,280.0004 350.3827,280.0004 C345.3607,280.0004 341.3807,278.5054 341.3807,268.0384 C341.3807,261.1044 342.1827,255.3824 350.3827,255.3824 C357.1397,255.3824 358.8377,259.0844 358.8377,266.9204 L358.8377,268.9324 L345.5147,268.9324 Z" id="Fill-253" fill="#FEFEFE" mask="url(#mask-4)"></path>
            <path d="M369.9917,258.5254 C365.8647,258.5254 365.3137,261.8054 365.3137,268.1324 C365.3137,271.6994 365.3137,276.8634 370.1267,276.8634 C374.4467,276.8634 374.4467,271.5104 374.4467,266.7384 C374.4467,263.5874 374.2597,258.5254 369.9917,258.5254 Z M374.4467,245.6754 L378.2907,245.6754 L378.2907,279.5364 L374.4467,279.5364 L374.4467,276.7144 L374.3587,276.7144 C373.0407,278.9164 371.4057,280.0004 368.9217,280.0004 C365.1107,280.0004 361.2727,278.5054 361.2727,268.0904 C361.2727,262.1744 361.4487,255.3824 369.0967,255.3824 C371.3567,255.3824 372.9997,256.3644 374.3067,258.2434 L374.4467,258.2434 L374.4467,245.6754 Z" id="Fill-254" fill="#FEFEFE" mask="url(#mask-4)"></path>
            <path d="M385.6089,272.501 C385.6089,274.803 386.7339,276.863 389.3039,276.863 C391.6679,276.863 394.5759,275.409 394.1989,267.762 C390.5289,267.803 385.6089,267.486 385.6089,272.501 Z M394.2789,276.117 L394.1989,276.117 C393.0189,278.835 391.1889,280 388.2339,280 C383.2179,280 381.7649,276.762 381.7649,272.231 C381.7649,265.043 388.7929,264.713 394.1989,264.847 C394.2789,261.703 394.3259,258.291 390.2069,258.291 C387.6339,258.291 386.2669,260.021 386.5039,262.518 L382.3299,262.518 C382.5049,257.22 385.3259,255.383 390.3409,255.383 C396.4469,255.383 398.0429,258.525 398.0429,262.518 L398.0429,273.907 C398.0429,275.793 398.2239,277.712 398.5129,279.536 L394.2789,279.536 L394.2789,276.117 Z" id="Fill-255" fill="#FEFEFE" mask="url(#mask-4)"></path>
            <path d="M410.3335,258.5254 C406.2005,258.5254 405.6345,261.8054 405.6345,268.1324 C405.6345,271.6994 405.6345,276.8634 410.4765,276.8634 C414.7905,276.8634 414.7905,271.5104 414.7905,266.7384 C414.7905,263.5874 414.5875,258.5254 410.3335,258.5254 Z M414.7905,245.6754 L418.6345,245.6754 L418.6345,279.5364 L414.7905,279.5364 L414.7905,276.7144 L414.7025,276.7144 C413.3685,278.9164 411.7335,280.0004 409.2555,280.0004 C405.4525,280.0004 401.6085,278.5054 401.6085,268.0904 C401.6085,262.1744 401.7825,255.3824 409.4315,255.3824 C411.6795,255.3824 413.3215,256.3644 414.6425,258.2434 L414.7905,258.2434 L414.7905,245.6754 Z" id="Fill-256" fill="#FEFEFE" mask="url(#mask-4)"></path>
            <path d="M425.6343,275.3418 L425.2103,275.3418 L425.2103,274.2238 L425.7633,274.2238 C426.0933,274.2238 426.2343,274.2988 426.2343,274.7228 C426.2343,275.2478 426.0443,275.3418 425.6343,275.3418 Z M426.6323,277.1128 C426.6323,277.0378 426.6163,276.9648 426.6163,276.8768 C426.6163,275.8538 426.6113,275.6308 426.2613,275.5098 C426.5773,275.3878 426.6503,275.1198 426.6503,274.7228 C426.6503,274.0698 426.4373,273.8548 425.7753,273.8548 L424.8533,273.8548 L424.8003,273.9198 L424.8003,277.2738 L424.8533,277.3198 L425.1573,277.3198 L425.2103,277.2738 L425.2103,275.7058 L425.7083,275.7058 C425.8703,275.7058 425.9973,275.7448 426.0773,275.8208 C426.2203,275.9818 426.2143,276.2308 426.2063,276.3708 L426.2063,276.4458 C426.2143,276.7878 426.2343,277.1798 426.2613,277.2798 L426.3143,277.3198 L426.5973,277.3198 L426.6573,277.2528 C426.6503,277.2138 426.6443,277.1578 426.6323,277.1128 Z M423.9803,273.8548 L423.9253,273.9068 L423.0033,276.7828 L422.0543,273.9068 L422.0053,273.8548 L421.5013,273.8548 L421.4413,273.9198 L421.4413,277.2738 L421.5013,277.3198 L421.7903,277.3198 L421.8513,277.2738 L421.8513,274.5338 L422.7593,277.2878 L422.8143,277.3198 L423.1633,277.3198 L423.2103,277.2798 L424.1013,274.5408 L424.1013,277.2738 L424.1483,277.3198 L424.4433,277.3198 L424.5033,277.2738 L424.5033,273.9198 L424.4433,273.8548 L423.9803,273.8548 Z M423.9993,279.0308 C422.1403,279.0308 420.6793,277.5028 420.6793,275.5968 C420.6793,273.6788 422.1403,272.1778 423.9993,272.1778 C425.8573,272.1778 427.3233,273.6788 427.3233,275.5968 C427.3233,277.5028 425.8573,279.0308 423.9993,279.0308 Z M423.9993,271.6648 C421.8863,271.6648 420.1753,273.4368 420.1753,275.5968 C420.1753,277.7708 421.8863,279.5358 423.9993,279.5358 C426.1123,279.5358 427.8233,277.7708 427.8233,275.5968 C427.8233,273.4368 426.1123,271.6648 423.9993,271.6648 Z" id="Fill-257" fill="#FEFEFE" mask="url(#mask-4)"></path>
        </g>
    </g>
</svg>